<svg width="23" height="23" viewBox="0 0 23 23" fill="none" xmlns="http://www.w3.org/2000/svg">
<path d="M22.9375 2.03125V17.3438C22.9375 17.959 22.3906 18.4375 21.8438 18.4375C21.2285 18.4375 20.75 17.959 20.75 17.3438V4.69727L2.9082 22.5391C2.70312 22.7441 2.42969 22.8125 2.15625 22.8125C1.81445 22.8125 1.54102 22.7441 1.33594 22.5391C0.925781 22.1289 0.925781 21.377 1.33594 20.9668L19.1777 3.125H6.46289C5.91602 3.125 5.36914 2.57812 5.4375 2.03125C5.4375 1.41602 5.91602 0.9375 6.53125 0.9375H21.8438C22.3906 0.9375 22.9375 1.48438 22.9375 2.03125Z" fill="white"/>
</svg>
